/* XPM */
static char * gold_xpm[] = {
"62 40 38 1",
" 	c None",
".	c #FF9600",
"+	c #FF9200",
"@	c #FFAE00",
"#	c #FFB900",
"$	c #FF8100",
"%	c #FF8E00",
"&	c #FFBC00",
"*	c #FF8300",
"=	c #FFA100",
"-	c #FFCC00",
";	c #FF9400",
">	c #FF9E00",
",	c #FF9100",
"'	c #FFA900",
")	c #FF8600",
"!	c #FFB100",
"~	c #FF9900",
"{	c #FF9B00",
"]	c #FFB400",
"^	c #FF7B00",
"/	c #FFB600",
"(	c #FFAB00",
"_	c #FFAF00",
":	c #FF8900",
"<	c #FF9C00",
"[	c #FF9500",
"}	c #FFC900",
"|	c #FFBE00",
"1	c #FF7E00",
"2	c #FFA300",
"3	c #FF8B00",
"4	c #FFC100",
"5	c #FF9F00",
"6	c #FFB200",
"7	c #FFA700",
"8	c #FFB300",
"9	c #FFA500",
"...++++@..+#@@@$$##$@@@@@@@@%%%%%&&%&&**==****==============--",
"...++++;;;+#>@@$$##,@@@@@@@@,,,%%&&%&&**==****=============---",
"...+++>;;>>>>$@$$$$$,,,@@@,,,,,@,,,%%%*===**===============---",
"...++'>;.>>>>$@$$$$$,,,@@@,,,,,@,,,%)))===**===============---",
".!!!!'>;....!.@$$$$$,,,@@@,,,,,@,,,%)))===**===============---",
".!!!!'>;....!.$$$$$$,,,@@@,,,,,@,,=%))=====================---",
".!....>.....!..$$,,,,,,,@@,,,,,~,,=%))====!!=*=============---",
".!....>.....!..$,,,,,,,,@@,,,,,~,,=%))====!!=*=========-------",
".!....>...,.!..$,,,,,,,,@@,,,,~~,,=%======!!=*=========-------",
".!....>...,.!..$,,,,,,,,@@,,,,~~%%=%======!!=*===========-----",
">>...>>>.>,.>..$,,,,,,,,%@,,,,~~%%=%%%%===!!=*===========-----",
">!!!!>>>!>,>!!)$,,~~~~~~~~)@~~~~))%%%%%%!!!!!*!!**=====-------",
"!!!!!'''!!,.!!)),!~)~~~~~)))~~~!))!%%%%=!!!!!*!!**==={===-----",
"+!!,,'''',,'!)]),)))~~~~~)))~)))))&))%%===!!!!======={=====---",
"+!!,,'')),,)))))))~)~~~~~)))~~))))&))=====^//*======={=@=-----",
"+((,,,,)),,)))))))~)~~~~~)))))))))=))_====///*====@@{{@@------",
"'((,,,,)),,)))))))~)~~~~~)))))))))=))_====///,====={{{{:------",
"((((('')),,)$)))))~)~~~~~)))]])<)<<<<==%==[/,,===*=@{{::@@----",
"((((((()#',)$)))))))~~~)])))]])<))<<)}=((}[',,==||@11{@@@@----",
"((((((()),,)$))))))),,,,#)))__<<=<<<<==((=[<,,====|@{{@@@@||||",
"(((,,,,,,,,)$))))))),~__##))__<<=<<<<==:==:<{{==|||@1{@@@@||||",
"((],,,,,,,,.$$]),,~~~~~__#)_]]<<=<<<<==:==:<{{==!!!!1{!{={{|||",
"))],,,,,,,,.$)]])]~~~~~~_]]]]]]]=<<<<=====:<{{===1111{{{={{22=",
"((],,,,,,,,,,)]])]~~~~~~_]]]]]<<<<<<(=((((:'11=221111111222221",
"((],,,,,,,,,,)]])]#!]]#_##]]]]<<<<<<(#((((::1====1111====22221",
"))],,,,,,,,),)]])]))]##=#####<<<<==##=====::1====1111====22221",
"=]],,,,,,,,)))]]]]#]]##_#####]<]<#####====''1====1111=====2221",
"]]]]]]],,,))))]]]]]]]#####]]]]]]######=:==''1====1111========1",
"]]]]]]]))]))))]]]]##]########_=###_#''=:==''=====1111========1",
"3)]]]~~))~))))]])]############<#===#1==:==::=====11111=11====1",
"3]]]]~~~~~~)))]]]]###########_<<==_====:==::=====11111111=4=11",
"3333,~~))~))))2222###########<<<=======:==::=====11111111=4=11",
"==~~,~~)))))))]]]]'##########555===========:=====11111111=4=11",
"3)~~,~~)))))))6,,,]]]#########5###==1======:=====1111111144441",
"))~~~~~)))))))),,''..##.#..5555555==1======:=======111=7172277",
"6&&&&&&))2)6)2222''''######5555555551======:=======111=11===7>",
"6666662))2)6)222222..##_#____25555_''======:========1=======77",
"6666666)))))))22_22..##_#____25##1_=1======:========1=======77",
"6666666........,.,#..##.#.2#222###_========:=============77777",
"6666666666))))],,,]]]#888#2~~25#~==========:================9>"};
