/* XPM */
static char * hippy_xpm[] = {
"34 29 203 2",
"  	c None",
". 	c #6727DB",
"+ 	c #9227DB",
"@ 	c #9225DB",
"# 	c #9D25DB",
"$ 	c #9D27DB",
"% 	c #9A25B9",
"& 	c #9D25B9",
"* 	c #9A27BA",
"= 	c #9A25BA",
"- 	c #9A25AD",
"; 	c #9A25A8",
"> 	c #9A258F",
", 	c #9A278F",
"' 	c #9A2991",
") 	c #9A298F",
"! 	c #9A288F",
"~ 	c #71288F",
"{ 	c #712876",
"] 	c #9A27BF",
"^ 	c #9A27B9",
"/ 	c #9A27AD",
"( 	c #9A27A8",
"_ 	c #9A2791",
": 	c #802876",
"< 	c #9226DB",
"[ 	c #9D27C4",
"} 	c #9A27C4",
"| 	c #802891",
"1 	c #9D25C4",
"2 	c #9D25BC",
"3 	c #9A25BC",
"4 	c #9A25BF",
"5 	c #99288F",
"6 	c #9925B9",
"7 	c #9A2591",
"8 	c #A327DB",
"9 	c #9A2691",
"0 	c #9A2891",
"a 	c #992891",
"b 	c #AD26DB",
"c 	c #9A27B4",
"d 	c #992991",
"e 	c #AD25C4",
"f 	c #AD25BC",
"g 	c #A32FDB",
"h 	c #922EDB",
"i 	c #9A25BE",
"j 	c #9A2EBC",
"k 	c #9A25B4",
"l 	c #9925B4",
"m 	c #9A2C91",
"n 	c #B62EDB",
"o 	c #B62DDB",
"p 	c #9A2EBE",
"q 	c #9A2EBA",
"r 	c #9925BF",
"s 	c #B62FDB",
"t 	c #9A25C4",
"u 	c #9A2EC4",
"v 	c #9925BA",
"w 	c #9A29BA",
"x 	c #9A2CBA",
"y 	c #9A28BA",
"z 	c #B62BDB",
"A 	c #B12BDB",
"B 	c #AD2BDB",
"C 	c #9D26DB",
"D 	c #AD25DB",
"E 	c #9D2BDB",
"F 	c #9A2BBE",
"G 	c #9A299D",
"H 	c #9A2C9A",
"I 	c #9A289A",
"J 	c #99289A",
"K 	c #992893",
"L 	c #B126DB",
"M 	c #AD27DB",
"N 	c #9A27BE",
"O 	c #B627DB",
"P 	c #9D27BE",
"Q 	c #9A26BA",
"R 	c #99269D",
"S 	c #9A279D",
"T 	c #9A26B4",
"U 	c #9926B4",
"V 	c #99279D",
"W 	c #99299D",
"X 	c #9A299A",
"Y 	c #992C9A",
"Z 	c #9D27BA",
"` 	c #9A2698",
" .	c #9A269D",
"..	c #9A279A",
"+.	c #99279A",
"@.	c #992898",
"#.	c #B62BE5",
"$.	c #B12BE5",
"%.	c #AD27E5",
"&.	c #AD27A3",
"*.	c #9D27B4",
"=.	c #9C27B4",
"-.	c #9C2798",
";.	c #9C279D",
">.	c #9D279D",
",.	c #9D259D",
"'.	c #9D279A",
").	c #992798",
"!.	c #992C98",
"~.	c #992895",
"{.	c #B62BE4",
"].	c #B12BE4",
"^.	c #AD27E4",
"/.	c #AD27BE",
"(.	c #B227BE",
"_.	c #9D27A3",
":.	c #B227AD",
"<.	c #9D2795",
"[.	c #99259D",
"}.	c #992C9D",
"|.	c #993F98",
"1.	c #993F95",
"2.	c #B227A3",
"3.	c #B227BA",
"4.	c #B22795",
"5.	c #B82795",
"6.	c #992F9D",
"7.	c #99259A",
"8.	c #992C97",
"9.	c #993F9A",
"0.	c #B62EA3",
"a.	c #B62DA3",
"b.	c #B12EA3",
"c.	c #B227B4",
"d.	c #992795",
"e.	c #992F9A",
"f.	c #992F97",
"g.	c #AD2EA3",
"h.	c #B82F95",
"i.	c #993F97",
"j.	c #B12BA3",
"k.	c #AD2FA3",
"l.	c #AD2AA3",
"m.	c #AD2CA3",
"n.	c #B22FA3",
"o.	c #B22EA3",
"p.	c #B22A95",
"q.	c #972F9D",
"r.	c #973F9D",
"s.	c #AD2D71",
"t.	c #AD2B71",
"u.	c #AD2DA3",
"v.	c #B22DA3",
"w.	c #B22D95",
"x.	c #B82D95",
"y.	c #B22F9D",
"z.	c #B2329D",
"A.	c #97329D",
"B.	c #973F9A",
"C.	c #973F98",
"D.	c #973F95",
"E.	c #B12DA3",
"F.	c #B22F71",
"G.	c #B22F95",
"H.	c #97449D",
"I.	c #9744A3",
"J.	c #974498",
"K.	c #994495",
"L.	c #994A95",
"M.	c #DD2EA3",
"N.	c #B82FA3",
"O.	c #B2449D",
"P.	c #B2319D",
"Q.	c #974495",
"R.	c #DD2DA3",
"S.	c #DD2FA3",
"T.	c #DD2F71",
"U.	c #B82F71",
"V.	c #B84495",
"W.	c #B23F9D",
"X.	c #CB4B98",
"Y.	c #C64B98",
"Z.	c #994B98",
"`.	c #997095",
" +	c #DD3CA3",
".+	c #B244A3",
"++	c #B34498",
"@+	c #B37093",
"#+	c #9D7098",
"$+	c #CB4FA3",
"%+	c #C66498",
"&+	c #B3709D",
"*+	c #B37095",
"=+	c #B77095",
"-+	c #DD3EA3",
";+	c #DD2F6B",
">+	c #B84A95",
",+	c #B24A9D",
"'+	c #C94A9D",
")+	c #B24F9D",
"!+	c #B24AA3",
"~+	c #B36498",
"{+	c #B34A98",
". . + @ @ # # # # # $ % & * * = = - ; ; > , ' ) ! ! ~ ~ ~ ~ { { { { ",
"+ + + @ + $ $ $ $ $ $ ] ^ * * * * / ( ( , , _ , , , , ! ! ~ ~ ~ ~ : ",
"+ + + < + # [ [ [ [ } } } } } } } } ( ( , , _ , , ) , ! ! ! ~ ~ ~ | ",
"+ + + < @ # 1 1 2 2 3 3 3 3 3 3 = 4 4 4 4 , , , , ) , ! ! 5 ~ 5 5 | ",
"+ + < < @ # 1 1 2 2 3 3 3 3 3 3 % % % % 6 , 7 , , ) ) ! 5 5 5 5 5 | ",
"8 8 < < < # 1 1 2 2 3 3 3 3 3 3 % % % % 6 * 9 ) ) 0 0 0 5 5 a a a a ",
"8 8 < < b # 1 1 2 2 3 3 3 3 3 3 % % % % 6 c ' ' ' ' d a a a a a a a ",
"8 8 < < b # 1 e f 2 3 3 3 3 3 3 % % % % 6 c ' ' ' ' _ 0 a a a a a a ",
"g g h < b # 1 e f 2 3 i j j j 3 - 4 4 k l c ' ' ' m m 0 0 a a a a a ",
"n o n < b # 1 e e 1 i i p q q = = = = 4 r * ' ' ' m m 0 a a a a a a ",
"s s s < b # 1 e e 1 t u q q q q q = = = v * w w w x x y a a a a a a ",
"z z z A B C $ D D E F F q q q q q = = = v * w G G x H I J K K 5 5 5 ",
"s s z L b $ $ M M $ N N q * * * * = = = v * G G G H H I J J K 5 5 5 ",
"n n O L b $ $ M M $ P N p * * * * = Q Q R S G G G H H I J J J 5 5 5 ",
"n s O L b $ $ M M $ P P P N * * c T T U R V W G X H Y J J J J J 5 5 ",
"n O O L M M M M M $ P P P * Z * * * Q `  .S  .S S ..+.@.@.J @.J @.@.",
"#.#.#.$.%.%.&.%.&.&.&.P P Z Z Z *.*.=.-.;.>.,.,.,.'.).).!.@.@.@.~.~.",
"{.{.{.].^.^.&.&.&.&.&./.(._._.:.*.<.;.-.V V [.,.[.}.!.!.!.|.|.|.1.1.",
"n o n A &.&.&.&.&.&.&./.(.&.2.2.3.4.5.).V }.6.6.[.7.8.!.!.9.|.1.1.1.",
"0.a.0.b.&.&.&.&.&.&.&./.(.&.2.2.c.4.5.d.V }.6.6.6.e.8.f.9.1.1.1.1.1.",
"0.a.0.b.g.&.&.&.&.&.&./.2.&.2.2.c.4.h.h.6.6.6.6.6.9.i.i.9.1.1.1.1.1.",
"a.a.a.j.g.k.k.k.&.l.m.k.n.k.n.n.o.p.h.h.6.6.6.q.r.9.9.9.9.1.1.1.1.1.",
"a.a.a.j.g.g.g.k.s.t.u.s.n.k.n.n.v.w.x.x.y.z.q.A.r.B.B.C.1.D.1.1.1.1.",
"a.a.a.E.b.g.g.k.s.s.v.F.n.n.n.n.v.w.h.x.G.y.y.q.H.H.I.J.K.K.K.K.K.L.",
"M.M.M.M.b.b.b.n.F.F.n.F.n.N.n.n.n.h.h.h.y.O.y.P.H.H.I.J.J.Q.K.K.K.L.",
"M.R.M.M.M.M.M.S.T.F.U.U.F.U.N.n.o.x.V.V.P.O.P.P.W.W.X.Y.Z.1.K.`.`.`.",
" +M.M.M.M.M.M.S.T.T.U.U.U.U.N.n.N.h.V.V.O.O.O.O.O..+X.Y.Y.++++@+#+#+",
"M.M.M.M.M.M.M.S.T.T.U.U.U.U.N.N.N.h.V.V.O.O.O.O.O..+$+%+%+++++&+*+=+",
"-+M.M.S.M.S.S.;+T.T.U.U.U.U.N.N.N.h.h.>+,+'+'+,+)+!+$+%+%+~+{+@+*+=+"};
