/* XPM */
static char * rasta_xpm[] = {
"62 7 389 2",
"  	c None",
". 	c #811800",
"+ 	c #801C00",
"@ 	c #7F2200",
"# 	c #7B2700",
"$ 	c #782900",
"% 	c #762700",
"& 	c #732100",
"* 	c #6E1900",
"= 	c #651000",
"- 	c #590900",
"; 	c #4D0500",
"> 	c #410400",
", 	c #350700",
"' 	c #2E0E00",
") 	c #2F1900",
"! 	c #362200",
"~ 	c #392600",
"{ 	c #312200",
"] 	c #241800",
"^ 	c #170E00",
"/ 	c #120B00",
"( 	c #1A1300",
"_ 	c #292000",
": 	c #3A2E00",
"< 	c #453600",
"[ 	c #4E3C00",
"} 	c #5B4400",
"| 	c #684D00",
"1 	c #6A4E00",
"2 	c #634900",
"3 	c #5F4600",
"4 	c #644A00",
"5 	c #664C00",
"6 	c #624A00",
"7 	c #5F4900",
"8 	c #604C00",
"9 	c #5F4D00",
"0 	c #564800",
"a 	c #453A00",
"b 	c #362C00",
"c 	c #372700",
"d 	c #483000",
"e 	c #573C00",
"f 	c #593F00",
"g 	c #4A3600",
"h 	c #342600",
"i 	c #281A00",
"j 	c #341F00",
"k 	c #4A2E00",
"l 	c #5B3E00",
"m 	c #5D4500",
"n 	c #524100",
"o 	c #3D3400",
"p 	c #282200",
"q 	c #201500",
"r 	c #2C1500",
"s 	c #411E00",
"t 	c #512400",
"u 	c #562400",
"v 	c #4E1E00",
"w 	c #3D1400",
"x 	c #2A0B00",
"y 	c #831700",
"z 	c #7E1900",
"A 	c #7D1E00",
"B 	c #7E2400",
"C 	c #7F2700",
"D 	c #812600",
"E 	c #7E2100",
"F 	c #761A00",
"G 	c #6B1100",
"H 	c #600A00",
"I 	c #550500",
"J 	c #4B0400",
"K 	c #420800",
"L 	c #3B0F00",
"M 	c #3A1800",
"N 	c #3B1F00",
"O 	c #382300",
"P 	c #2F1F00",
"Q 	c #211600",
"R 	c #140D00",
"S 	c #0F0A00",
"T 	c #140F00",
"U 	c #1E1700",
"V 	c #322700",
"W 	c #3C2D00",
"X 	c #4A3700",
"Y 	c #574000",
"Z 	c #5A4200",
"` 	c #553E00",
" .	c #543E00",
"..	c #5C4500",
"+.	c #634B00",
"@.	c #644D00",
"#.	c #644E00",
"$.	c #634F00",
"%.	c #5D4B00",
"&.	c #4E4000",
"*.	c #3A3100",
"=.	c #2E2400",
"-.	c #382800",
";.	c #4E3700",
">.	c #5F4400",
",.	c #4F3A00",
"'.	c #362900",
").	c #261C00",
"!.	c #2E2200",
"~.	c #413100",
"{.	c #4F3D00",
"].	c #504000",
"^.	c #443900",
"/.	c #312B00",
"(.	c #211B00",
"_.	c #1F1200",
":.	c #301600",
"<.	c #461F00",
"[.	c #552400",
"}.	c #592200",
"|.	c #501B00",
"1.	c #3F1100",
"2.	c #2C0900",
"3.	c #801600",
"4.	c #7A1500",
"5.	c #7A1900",
"6.	c #7E1E00",
"7.	c #832100",
"8.	c #862100",
"9.	c #831D00",
"0.	c #7B1700",
"a.	c #710F00",
"b.	c #680900",
"c.	c #600500",
"d.	c #580600",
"e.	c #510B00",
"f.	c #4C1100",
"g.	c #481600",
"h.	c #411A00",
"i.	c #361A00",
"j.	c #281700",
"k.	c #1A1000",
"l.	c #110B00",
"m.	c #120D00",
"n.	c #191300",
"o.	c #201900",
"p.	c #251E00",
"q.	c #2A2100",
"r.	c #302500",
"s.	c #3B2C00",
"t.	c #463300",
"u.	c #493600",
"v.	c #473400",
"w.	c #4B3700",
"x.	c #544000",
"y.	c #5D4900",
"z.	c #614D00",
"A.	c #614E00",
"B.	c #5D4C00",
"C.	c #544500",
"D.	c #443800",
"E.	c #322900",
"F.	c #362800",
"G.	c #4C3700",
"H.	c #584100",
"I.	c #463500",
"J.	c #2F2400",
"K.	c #211A00",
"L.	c #292200",
"M.	c #392F00",
"N.	c #433800",
"O.	c #413600",
"P.	c #342C00",
"Q.	c #241F00",
"R.	c #1E0F00",
"S.	c #311500",
"T.	c #461E00",
"U.	c #532200",
"V.	c #541F00",
"W.	c #491700",
"X.	c #380E00",
"Y.	c #280700",
"Z.	c #7A1200",
"`.	c #751100",
" +	c #771300",
".+	c #7D1800",
"++	c #831A00",
"@+	c #851A00",
"#+	c #811700",
"$+	c #7B1200",
"%+	c #750C00",
"&+	c #710800",
"*+	c #6B0600",
"=+	c #650900",
"-+	c #5F0E00",
";+	c #5A1400",
">+	c #551700",
",+	c #4A1700",
"'+	c #381400",
")+	c #260F00",
"!+	c #170B00",
"~+	c #130D00",
"{+	c #1C1500",
"]+	c #282000",
"^+	c #332800",
"/+	c #382C00",
"(+	c #392E00",
"_+	c #3B2F00",
":+	c #403100",
"<+	c #463400",
"[+	c #433100",
"}+	c #443300",
"|+	c #4D3C00",
"1+	c #564500",
"2+	c #5A4A00",
"3+	c #594900",
"4+	c #544400",
"5+	c #4A3C00",
"6+	c #3D3200",
"7+	c #312900",
"8+	c #2B2200",
"9+	c #312500",
"0+	c #3F2F00",
"a+	c #483600",
"b+	c #453400",
"c+	c #231B00",
"d+	c #1A1500",
"e+	c #211C00",
"f+	c #2E2700",
"g+	c #342D00",
"h+	c #312A00",
"i+	c #252000",
"j+	c #191500",
"k+	c #150C00",
"l+	c #1F0C00",
"m+	c #301300",
"n+	c #421B00",
"o+	c #4B1E00",
"p+	c #481B00",
"q+	c #3C1300",
"r+	c #2D0B00",
"s+	c #200500",
"t+	c #790F00",
"u+	c #760F00",
"v+	c #791100",
"w+	c #801500",
"x+	c #861700",
"y+	c #851700",
"z+	c #801300",
"A+	c #7A0F00",
"B+	c #770B00",
"C+	c #750900",
"D+	c #6C0A00",
"E+	c #681000",
"F+	c #641600",
"G+	c #5D1900",
"H+	c #501600",
"I+	c #3C1100",
"J+	c #280B00",
"K+	c #1B0900",
"L+	c #1A1100",
"M+	c #281E00",
"N+	c #493A00",
"O+	c #534000",
"P+	c #533E00",
"Q+	c #4D3900",
"R+	c #443200",
"S+	c #3F3000",
"T+	c #453800",
"U+	c #4E4100",
"V+	c #524400",
"W+	c #524300",
"X+	c #4E3E00",
"Y+	c #473800",
"Z+	c #403300",
"`+	c #312800",
" @	c #2C2300",
".@	c #2E2300",
"+@	c #2D2200",
"@@	c #221A00",
"#@	c #161100",
"$@	c #110E00",
"%@	c #171400",
"&@	c #201B00",
"*@	c #1A0900",
"=@	c #260B00",
"-@	c #331100",
";@	c #3E1600",
">@	c #411800",
",@	c #3C1500",
"'@	c #300F00",
")@	c #240900",
"!@	c #1C0400",
"~@	c #821100",
"{@	c #811100",
"]@	c #851300",
"^@	c #8B1700",
"/@	c #8E1900",
"(@	c #8A1800",
"_@	c #791000",
":@	c #760E00",
"<@	c #730B00",
"[@	c #700B00",
"}@	c #6E0F00",
"|@	c #691400",
"1@	c #611600",
"2@	c #531300",
"3@	c #400E00",
"4@	c #2E0900",
"5@	c #230A00",
"6@	c #241400",
"7@	c #322500",
"8@	c #473700",
"9@	c #5A4600",
"0@	c #675000",
"a@	c #5E4700",
"b@	c #523D00",
"c@	c #433200",
"d@	c #3A2D00",
"e@	c #3E3300",
"f@	c #473A00",
"g@	c #4C3E00",
"h@	c #4F3C00",
"i@	c #4B3900",
"j@	c #433500",
"k@	c #1D1600",
"l@	c #130E00",
"m@	c #0C0900",
"n@	c #0A0800",
"o@	c #0E0B00",
"p@	c #131000",
"q@	c #171200",
"r@	c #171100",
"s@	c #150D00",
"t@	c #170900",
"u@	c #220900",
"v@	c #300C00",
"w@	c #3B1100",
"x@	c #401300",
"y@	c #3F1300",
"z@	c #391000",
"A@	c #2E0B00",
"B@	c #230700",
"C@	c #1D0300",
"D@	c #901700",
"E@	c #931700",
"F@	c #971900",
"G@	c #971B00",
"H@	c #901B00",
"I@	c #821700",
"J@	c #741100",
"K@	c #751000",
"L@	c #760C00",
"M@	c #671000",
"N@	c #590E00",
"O@	c #470A00",
"P@	c #370700",
"Q@	c #2D0A00",
"R@	c #372600",
"S@	c #4C3900",
"T@	c #604900",
"U@	c #6E5200",
"V@	c #755700",
"W@	c #755800",
"X@	c #705400",
"Y@	c #654B00",
"Z@	c #413000",
"`@	c #362A00",
" #	c #372D00",
".#	c #463700",
"+#	c #533D00",
"@#	c #513D00",
"##	c #443400",
"$#	c #150F00",
"%#	c #0C0700",
"&#	c #0B0400",
"*#	c #0A0400",
"=#	c #0B0700",
"-#	c #100C00",
";#	c #160F00",
">#	c #1A0E00",
",#	c #1C0B00",
"'#	c #370F00",
")#	c #431400",
"!#	c #451400",
"~#	c #3E0F00",
"{#	c #330A00",
"]#	c #270600",
"^#	c #1F0300",
". + @ # $ % & * = - ; > , ' ) ! ~ { ] ^ / ( _ : < [ } | 1 2 3 4 5 6 7 8 9 0 a b c d e f g h i j k l m n o p q r s t u v w x ",
"y z A B C D E F G H I J K L M N O P Q R S T U _ V W X Y Z `  ...+.@.#.$.%.&.*.=.-.;.>.3 ,.'.).!.~.{.].^./.(._.:.<.[.}.|.1.2.",
"3.4.5.6.7.8.9.0.a.b.c.d.e.f.g.h.i.j.k.l.m.n.o.p.q.r.s.t.u.v.w.x.y.z.A.B.C.D.E.q.F.G.Z H.I.J.K.L.M.N.O.P.Q.n.R.S.T.U.V.W.X.Y.",
"Z.`. +.+++@+#+$+%+&+*+=+-+;+>+,+'+)+!+~+{+]+^+/+(+_+:+<+t.[+}+|+1+2+3+4+5+6+7+8+9+0+a+b+'.c+d+e+f+g+h+i+j+k+l+m+n+o+p+q+r+s+",
"t+u+v+w+x+y+z+A+B+C+&+D+E+F+G+H+I+J+K+L+M+: N+].n n O+P+Q+R+S+T+U+V+W+X+Y+Z+(+`+ @.@9++@@@#@$@%@&@Q.e+d+R *@=@-@;@>@,@'@)@!@",
"~@{@]@^@/@(@w+_@:@%+<@[@}@|@1@2@3@4@5@6@7@8@9@#.0@0@@.a@b@c@d@e@f@g@X+h@i@Y+j@(+ @K.k@n.l@m@n@o@p@q@r@s@t@u@v@w@x@y@z@A@B@C@",
"D@D@E@F@G@H@I@ +J@K@:@L@%+a.M@N@O@P@Q@r R@S@T@U@V@W@X@Y@ .Z@`@ #e@.#h@P++#@#[ ##V o.$#S %#&#*#=#-#;#k.>#,#J+'#)#g.!#~#{#]#^#"};
