/* XPM */
static char * play_xpm[] = {
"11 20 2 1",
" 	c None",
".	c #37B249",
" .         ",
" ..        ",
" ...       ",
" ....      ",
" .....     ",
" ......    ",
" .......   ",
" ........  ",
" ......... ",
" ..........",
" ..........",
" ......... ",
" ........  ",
" .......   ",
" ......    ",
" .....     ",
" ....      ",
" ...       ",
" ..        ",
" .         "};
