<?xml version="1.0" encoding="UTF-8" standalone="no"?>
<!DOCTYPE svg PUBLIC "-//W3C//DTD SVG 1.0//EN"
"http://www.w3.org/TR/2001/REC-SVG-20010904/DTD/svg10.dtd">
<!-- Created with Inkscape (http://www.inkscape.org/) -->
<svg
   xmlns="http://www.w3.org/2000/svg"
   xmlns:xlink="http://www.w3.org/1999/xlink"
   version="1.0"
   x="0.0000000"
   y="0.0000000"
   width="200.00000"
   height="200.00000"
   id="svg1">
  <defs
     id="defs3">
    <linearGradient
       id="linearGradient298">
      <stop
         style="stop-color:#ffffff;stop-opacity:1.0000000;"
         offset="0.0000000"
         id="stop299" />
      <stop
         style="stop-color:#0ed12d;stop-opacity:0.0000000;"
         offset="1.0000000"
         id="stop300" />
    </linearGradient>
    <linearGradient
       id="linearGradient219">
      <stop
         style="stop-color:#0ed12d;stop-opacity:1.0000000;"
         offset="0.0000000"
         id="stop220" />
      <stop
         style="stop-color:#0ed12d;stop-opacity:0.0000000;"
         offset="1.0000000"
         id="stop221" />
    </linearGradient>
    <radialGradient
       cx="58.525269"
       cy="74.157272"
       r="23.150042"
       fx="58.525269"
       fy="74.157272"
       id="radialGradient301"
       xlink:href="#linearGradient298"
       gradientUnits="userSpaceOnUse"
       gradientTransform="scale(1.006390,0.993651)"
       spreadMethod="pad" />
    <linearGradient
       id="linearGradient8890">
      <stop
         style="stop-color:#f8f8f8;stop-opacity:1.0000000;"
         offset="0.0000000"
         id="stop8891" />
      <stop
         style="stop-color:#030303;stop-opacity:1.0000000;"
         offset="1.0000000"
         id="stop8892" />
    </linearGradient>
    <linearGradient
       id="linearGradient13560">
      <stop
         style="stop-color:#000000;stop-opacity:1.0000000;"
         offset="0.0000000"
         id="stop13561" />
      <stop
         style="stop-color:#ffffff;stop-opacity:1.0000000;"
         offset="1.0000000"
         id="stop13562" />
    </linearGradient>
    <linearGradient
       x1="652.17169"
       y1="877.37781"
       x2="627.73749"
       y2="649.07062"
       id="linearGradient375"
       xlink:href="#linearGradient13560"
       gradientUnits="userSpaceOnUse"
       gradientTransform="matrix(1.129882,0.000000,0.000000,0.885048,-1692.814,-1045.923)" />
    <radialGradient
       cx="108.12981"
       cy="123.33773"
       r="5.3944039"
       fx="108.12981"
       fy="123.33773"
       id="radialGradient538"
       xlink:href="#linearGradient8890"
       gradientUnits="userSpaceOnUse"
       gradientTransform="scale(1.284523,0.778499)" />
    <radialGradient
       cx="108.12981"
       cy="123.33773"
       r="5.3944039"
       fx="108.12981"
       fy="123.33773"
       id="radialGradient542"
       xlink:href="#linearGradient8890"
       gradientUnits="userSpaceOnUse"
       gradientTransform="scale(1.284523,0.778499)" />
    <linearGradient
       x1="55.985397"
       y1="36.928242"
       x2="44.790215"
       y2="25.785942"
       id="linearGradient2234"
       xlink:href="#linearGradient219"
       gradientUnits="userSpaceOnUse"
       gradientTransform="scale(1.006390,0.993651)"
       spreadMethod="reflect" />
    <radialGradient
       cx="61.588699"
       cy="74.387192"
       r="22.577679"
       fx="61.588699"
       fy="74.387192"
       id="radialGradient2308"
       xlink:href="#linearGradient219"
       gradientUnits="userSpaceOnUse"
       gradientTransform="scale(1.006390,0.993651)"
       spreadMethod="pad" />
    <radialGradient
       cx="61.588699"
       cy="74.387192"
       r="22.577679"
       fx="61.588699"
       fy="74.387192"
       id="radialGradient2336"
       xlink:href="#linearGradient219"
       gradientUnits="userSpaceOnUse"
       gradientTransform="scale(1.006390,0.993651)"
       spreadMethod="pad" />
    <radialGradient
       cx="58.525269"
       cy="74.157272"
       r="23.150042"
       fx="58.525269"
       fy="74.157272"
       id="radialGradient2337"
       xlink:href="#linearGradient298"
       gradientUnits="userSpaceOnUse"
       gradientTransform="scale(1.006390,0.993651)"
       spreadMethod="pad" />
    <radialGradient
       cx="108.12981"
       cy="123.33773"
       r="5.3944039"
       fx="108.12981"
       fy="123.33773"
       id="radialGradient2338"
       xlink:href="#linearGradient8890"
       gradientUnits="userSpaceOnUse"
       gradientTransform="scale(1.284523,0.778499)" />
    <radialGradient
       cx="108.12981"
       cy="123.33773"
       r="5.3944039"
       fx="108.12981"
       fy="123.33773"
       id="radialGradient2339"
       xlink:href="#linearGradient8890"
       gradientUnits="userSpaceOnUse"
       gradientTransform="scale(1.284523,0.778499)" />
  </defs>
  <g
     id="layer1" />
  <g
     transform="translate(0.302115,0.604230)"
     id="g2335">
    <path
       d="M 138.06646,104.98489 C 138.07247,126.59662 120.41909,144.11955 98.640479,144.11955 C 76.861862,144.11955 59.208489,126.59662 59.214497,104.98489 C 59.208489,83.373161 76.861862,65.850231 98.640479,65.850231 C 120.41909,65.850231 138.07247,83.373161 138.06646,104.98489 L 138.06646,104.98489 z "
       transform="matrix(2.525097,0.000000,0.000000,2.525097,-148.9181,-165.7012)"
       style="opacity:0.99141634;color:#000000;fill:#37b64c;fill-opacity:1.0000000;fill-rule:nonzero;stroke:#445632;stroke-width:0.0000000;stroke-linecap:butt;stroke-linejoin:round;stroke-miterlimit:4.0000000;stroke-dashoffset:0.0000000;stroke-opacity:1.0000000;marker:none;marker-start:none;marker-mid:none;marker-end:none;visibility:visible;display:block"
       id="path70" />
    <path
       d="M 86.404835,76.435043 C 86.404835,89.449609 75.719184,99.999999 62.537765,99.999999 C 49.356347,99.999999 38.670696,89.449609 38.670696,76.435043 C 38.670696,63.420477 49.356347,52.870087 62.537765,52.870087 C 75.719184,52.870087 86.404835,63.420477 86.404835,76.435043 z "
       transform="matrix(1.958407,2.559839,-2.541871,1.250488,190.6624,-185.2610)"
       style="opacity:0.99141634;color:#000000;fill:url(#radialGradient2336);fill-opacity:1.0000000;fill-rule:nonzero;stroke:#445632;stroke-width:0.0000000;stroke-linecap:butt;stroke-linejoin:round;stroke-miterlimit:4.0000000;stroke-dashoffset:0.0000000;stroke-opacity:1.0000000;marker:none;marker-start:none;marker-mid:none;marker-end:none;visibility:visible;display:block"
       id="path145" />
    <path
       d="M 86.404835,76.435043 C 86.404835,89.449609 75.719184,99.999999 62.537765,99.999999 C 49.356347,99.999999 38.670696,89.449609 38.670696,76.435043 C 38.670696,63.420477 49.356347,52.870087 62.537765,52.870087 C 75.719184,52.870087 86.404835,63.420477 86.404835,76.435043 z "
       transform="matrix(1.394823,1.213495,-0.715063,1.153391,110.5194,-106.9023)"
       style="opacity:0.99141634;color:#000000;fill:url(#radialGradient2337);fill-opacity:1.0000000;fill-rule:nonzero;stroke:#445632;stroke-width:0.0000000;stroke-linecap:butt;stroke-linejoin:round;stroke-miterlimit:4.0000000;stroke-dashoffset:0.0000000;stroke-opacity:1.0000000;marker:none;marker-start:none;marker-mid:none;marker-end:none;visibility:visible;display:block"
       id="path223" />
    <g
       transform="matrix(2.525097,0.000000,0.000000,2.525097,-442.3293,-130.6705)"
       style="opacity:0.43621400"
       id="g544">
      <path
         d="M 213.38048,61.140750 L 213.44146,61.689560 L 213.41707,61.689560 C 213.49958,61.891330 212.53715,93.389570 214.02685,104.41065 C 212.00427,103.22023 209.27858,102.71362 206.08750,102.71546 C 193.04144,103.28859 194.08429,111.75654 195.70901,113.77710 C 198.04522,117.78211 208.28353,119.89960 215.10007,113.76491 C 216.71822,111.74250 217.68998,109.21818 217.68554,106.45972 C 217.68445,105.78250 217.60206,105.17983 217.50261,104.59379 C 217.56010,104.45774 217.56921,104.27177 217.47822,103.94742 C 215.53206,91.076970 215.89783,75.516021 216.28018,70.216751 C 218.72869,70.600921 221.68608,70.778471 229.47872,82.640422 C 229.47502,68.511717 214.68517,61.684780 213.38048,61.140750 z "
         style="fill:#000000;fill-opacity:1.0000000;fill-rule:nonzero;stroke:none;stroke-width:1.0000000pt;stroke-linecap:butt;stroke-linejoin:miter;stroke-opacity:1.0000000"
         id="path540" />
      <path
         d="M 145.15694,96.018303 C 145.15694,98.114199 142.35349,99.813258 138.89526,99.813258 C 135.43704,99.813258 132.63359,98.114199 132.63359,96.018303 C 132.63359,93.922407 135.43704,92.223348 138.89526,92.223348 C 142.35349,92.223348 145.15694,93.922407 145.15694,96.018303 z "
         transform="translate(67.82437,13.79977)"
         style="opacity:0.99141634;color:#000000;fill:url(#radialGradient2338);fill-opacity:1.0000000;fill-rule:nonzero;stroke:#445632;stroke-width:0.0000000;stroke-linecap:butt;stroke-linejoin:round;stroke-miterlimit:4.0000000;stroke-dashoffset:0.0000000;stroke-opacity:1.0000000;marker:none;marker-start:none;marker-mid:none;marker-end:none;visibility:visible;display:block"
         id="path541" />
    </g>
    <path
       d="M 99.617560,20.971797 L 99.771540,22.357596 L 99.709953,22.357596 C 99.918299,22.867084 97.488070,102.40318 101.24971,130.23247 C 96.142497,127.22655 89.259867,125.94731 81.202082,125.95195 C 48.259521,127.39917 50.892818,148.78155 54.995393,153.88366 C 60.894548,163.99669 86.747269,169.34356 103.95969,153.85288 C 108.04568,148.74610 110.49946,142.37195 110.48825,135.40657 C 110.48550,133.69653 110.27746,132.17473 110.02634,130.69492 C 110.17150,130.35138 110.19451,129.88179 109.96475,129.06277 C 105.05051,96.563642 105.97411,57.270744 106.93958,43.889576 C 113.12231,44.859642 120.59000,45.307973 140.26717,75.260544 C 140.25783,39.584200 102.91203,22.345526 99.617560,20.971797 z "
       style="fill:#000000;fill-opacity:1.0000000;fill-rule:nonzero;stroke:none;stroke-width:1.0000000pt;stroke-linecap:butt;stroke-linejoin:miter;stroke-opacity:1.0000000"
       id="path1534" />
    <path
       d="M 145.15694,96.018303 C 145.15694,98.114199 142.35349,99.813258 138.89526,99.813258 C 135.43704,99.813258 132.63359,98.114199 132.63359,96.018303 C 132.63359,93.922407 135.43704,92.223348 138.89526,92.223348 C 142.35349,92.223348 145.15694,93.922407 145.15694,96.018303 z "
       transform="matrix(2.525097,0.000000,0.000000,2.525097,-267.9257,-98.56874)"
       style="opacity:0.99141634;color:#000000;fill:url(#radialGradient2339);fill-opacity:1.0000000;fill-rule:nonzero;stroke:#445632;stroke-width:0.0000000;stroke-linecap:butt;stroke-linejoin:round;stroke-miterlimit:4.0000000;stroke-dashoffset:0.0000000;stroke-opacity:1.0000000;marker:none;marker-start:none;marker-mid:none;marker-end:none;visibility:visible;display:block"
       id="path461" />
  </g>
</svg>

